{
  "source": "C:\\Users\\Peter\\Desktop\\stuff\\MIUN\\quantitative_research\\video_compression\\videos\\BVI-HD\\BVI-HD_CDVL_videos\\ORIG\\KineticFastPainting_1920x1080_60fps.mp4",
  "output": "C:\\Users\\Peter\\Desktop\\stuff\\MIUN\\quantitative_research\\video_compression\\compressed_videos\\BVI-HD\\h264\\3\\KineticFastPainting_1920x1080_60fps_h264.mp4",
  "codec": "h264",
  "ok": "Input #0, mov,mp4,m4a,3gp,3g2,mj2, from 'C:\\Users\\Peter\\Desktop\\stuff\\MIUN\\quantitative_research\\video_compression\\videos\\BVI-HD\\BVI-HD_CDVL_videos\\ORIG\\KineticFastPainting_1920x1080_60fps.mp4':\n  Metadata:\n    major_brand     : isom\n    minor_version   : 512\n    compatible_brands: isomiso2avc1mp41\n    encoder         : Lavf54.28.101\n  Duration: 00:00:05.00, start: 0.000000, bitrate: 477980 kb/s\n  Stream #0:0[0x1](und): Video: h264 (High 4:4:4 Predictive) (avc1 / 0x31637661), yuv420p(progressive), 1920x1080, 477974 kb/s, 60 fps, 60 tbr, 60 tbn (default)\n    Metadata:\n      handler_name    : VideoHandler\n      vendor_id       : [0][0][0][0]\n[out#0/mp4 @ 000001993bda9cc0] Codec AVOption b:a (set bitrate (in bits/s)) has not been used for any stream. The most likely reason is either wrong type (e.g. a video option with no video streams) or that it is a private option of some decoder which was not actually used for any stream.\nStream mapping:\n  Stream #0:0 -> #0:0 (h264 (native) -> h264 (libx264))\nPress [q] to stop, [?] for help\n[libx264 @ 000001993bdbbc80] using cpu capabilities: MMX2 SSE2Fast SSSE3 SSE4.2 AVX FMA3 BMI2 AVX2\n[libx264 @ 000001993bdbbc80] profile High, level 5.0, 4:2:0, 8-bit\n[libx264 @ 000001993bdbbc80] 264 - core 165 r3222 b35605a - H.264/MPEG-4 AVC codec - Copyleft 2003-2025 - http://www.videolan.org/x264.html - options: cabac=1 ref=5 deblock=1:0:0 analyse=0x3:0x113 me=hex subme=8 psy=1 psy_rd=1.00:0.00 mixed_ref=1 me_range=16 chroma_me=1 trellis=2 8x8dct=1 cqm=0 deadzone=21,11 fast_pskip=1 chroma_qp_offset=-2 threads=18 lookahead_threads=3 sliced_threads=0 nr=0 decimate=1 interlaced=0 bluray_compat=0 constrained_intra=0 bframes=3 b_pyramid=2 b_adapt=1 b_bias=0 direct=3 weightb=1 open_gop=0 weightp=2 keyint=250 keyint_min=25 scenecut=40 intra_refresh=0 rc_lookahead=50 rc=cbr mbtree=1 bitrate=3000 ratetol=1.0 qcomp=0.60 qpmin=0 qpmax=69 qpstep=4 vbv_maxrate=3000 vbv_bufsize=3000 nal_hrd=none filler=0 ip_ratio=1.40 aq=1:1.00\nOutput #0, mp4, to 'C:\\Users\\Peter\\Desktop\\stuff\\MIUN\\quantitative_research\\video_compression\\compressed_videos\\BVI-HD\\h264\\3\\KineticFastPainting_1920x1080_60fps_h264.mp4':\n  Metadata:\n    major_brand     : isom\n    minor_version   : 512\n    compatible_brands: isomiso2avc1mp41\n    encoder         : Lavf62.3.100\n  Stream #0:0(und): Video: h264 (avc1 / 0x31637661), yuv420p(tv, progressive), 1920x1080, q=2-31, 3000 kb/s, 60 fps, 15360 tbn (default)\n    Metadata:\n      encoder         : Lavc62.11.100 libx264\n      handler_name    : VideoHandler\n      vendor_id       : [0][0][0][0]\n    Side data:\n      cpb: bitrate max/min/avg: 3000000/0/3000000 buffer size: 3000000 vbv_delay: N/A\nframe=    0 fps=0.0 q=0.0 size=       0KiB time=N/A bitrate=N/A speed=N/A elapsed=0:00:00.52    \nframe=    0 fps=0.0 q=0.0 size=       0KiB time=N/A bitrate=N/A speed=N/A elapsed=0:00:01.06    \nframe=    0 fps=0.0 q=0.0 size=       0KiB time=N/A bitrate=N/A speed=N/A elapsed=0:00:01.65    \nframe=    1 fps=0.5 q=46.0 size=       0KiB time=N/A bitrate=N/A speed=N/A elapsed=0:00:02.20    \nframe=   26 fps=9.2 q=48.0 size=       0KiB time=00:00:00.36 bitrate=   1.0kbits/s speed=0.13x elapsed=0:00:02.82    \nframe=   45 fps= 13 q=48.0 size=     256KiB time=00:00:00.68 bitrate=3069.6kbits/s speed=0.201x elapsed=0:00:03.40    \nframe=   68 fps= 17 q=48.0 size=     256KiB time=00:00:01.06 bitrate=1966.4kbits/s speed=0.266x elapsed=0:00:04.00    \nframe=   84 fps= 18 q=48.0 size=     512KiB time=00:00:01.36 bitrate=3069.3kbits/s speed=0.298x elapsed=0:00:04.59    \nframe=  107 fps= 21 q=50.0 size=     512KiB time=00:00:01.75 bitrate=2397.0kbits/s speed=0.34x elapsed=0:00:05.14    \nframe=  128 fps= 22 q=49.0 size=     768KiB time=00:00:02.10 bitrate=2996.1kbits/s speed=0.364x elapsed=0:00:05.76    \nframe=  142 fps= 22 q=48.0 size=     768KiB time=00:00:02.31 bitrate=2715.9kbits/s speed=0.367x elapsed=0:00:06.31    \nframe=  162 fps= 24 q=48.0 size=     768KiB time=00:00:02.61 bitrate=2404.5kbits/s speed=0.38x elapsed=0:00:06.88    \nframe=  184 fps= 25 q=48.0 size=    1024KiB time=00:00:03.01 bitrate=2780.9kbits/s speed=0.403x elapsed=0:00:07.47    \nframe=  205 fps= 25 q=52.0 size=    1024KiB time=00:00:03.35 bitrate=2504.2kbits/s speed=0.413x elapsed=0:00:08.11    \nframe=  230 fps= 27 q=48.0 size=    1280KiB time=00:00:03.78 bitrate=2771.7kbits/s speed=0.436x elapsed=0:00:08.67    \nframe=  265 fps= 29 q=47.0 size=    1536KiB time=00:00:04.31 bitrate=2915.0kbits/s speed=0.468x elapsed=0:00:09.22    \nframe=  284 fps= 29 q=-1.0 size=    1536KiB time=00:00:04.68 bitrate=2686.8kbits/s speed=0.478x elapsed=0:00:09.80    \n[mp4 @ 000001993bdba600] Starting second pass: moving the moov atom to the beginning of the file\n[out#0/mp4 @ 000001993bda9cc0] video:1857KiB audio:0KiB subtitle:0KiB other streams:0KiB global headers:0KiB muxing overhead: 0.180396%\nframe=  300 fps= 30 q=-1.0 Lsize=    1861KiB time=00:00:04.96 bitrate=3069.0kbits/s speed=0.491x elapsed=0:00:10.11    \n[libx264 @ 000001993bdbbc80] frame I:2     Avg QP:42.76  size: 26496\n[libx264 @ 000001993bdbbc80] frame P:210   Avg QP:47.20  size:  7081\n[libx264 @ 000001993bdbbc80] frame B:88    Avg QP:49.38  size:  4104\n[libx264 @ 000001993bdbbc80] consecutive B-frames: 50.7% 30.0%  2.0% 17.3%\n[libx264 @ 000001993bdbbc80] mb I  I16..4: 26.0% 73.3%  0.7%\n[libx264 @ 000001993bdbbc80] mb P  I16..4: 12.3%  4.3%  0.0%  P16..4: 24.2%  0.8%  0.9%  0.0%  0.0%    skip:57.5%\n[libx264 @ 000001993bdbbc80] mb B  I16..4:  0.7%  0.4%  0.0%  B16..8: 32.0%  0.8%  0.0%  direct: 2.7%  skip:63.5%  L0:46.3% L1:53.1% BI: 0.6%\n[libx264 @ 000001993bdbbc80] 8x8 transform intra:28.5% inter:99.0%\n[libx264 @ 000001993bdbbc80] direct mvs  spatial:89.8% temporal:10.2%\n[libx264 @ 000001993bdbbc80] coded y,uvDC,uvAC intra: 4.5% 36.6% 1.5% inter: 1.2% 11.1% 0.0%\n[libx264 @ 000001993bdbbc80] i16 v,h,dc,p: 37% 27%  9% 26%\n[libx264 @ 000001993bdbbc80] i8 v,h,dc,ddl,ddr,vr,hd,vl,hu:  9%  4% 43%  7% 10%  9%  8%  6%  4%\n[libx264 @ 000001993bdbbc80] i4 v,h,dc,ddl,ddr,vr,hd,vl,hu: 18%  6%  9%  9% 19% 17% 10%  6%  6%\n[libx264 @ 000001993bdbbc80] i8c dc,h,v,p: 89%  5%  4%  2%\n[libx264 @ 000001993bdbbc80] Weighted P-Frames: Y:32.9% UV:14.8%\n[libx264 @ 000001993bdbbc80] ref P L0: 61.7%  2.2% 12.9%  8.5%  7.9%  5.6%  1.1%\n[libx264 @ 000001993bdbbc80] ref B L0: 73.9% 13.6% 10.7%  1.8%\n[libx264 @ 000001993bdbbc80] ref B L1: 97.1%  2.9%\n[libx264 @ 000001993bdbbc80] kb/s:3041.87\n",
  "seconds": 10.70043420791626,
  "probe_out": {}
}